<?xml version="1.0" encoding="UTF-8"?>
<svg width="31px" height="29px" viewBox="0 0 31 29" version="1.1" xmlns="http://www.w3.org/2000/svg" xmlns:xlink="http://www.w3.org/1999/xlink">
    <!-- Generator: Sketch 45.1 (43504) - http://www.bohemiancoding.com/sketch -->
    <title>building</title>
    <desc>Created with Sketch.</desc>
    <defs></defs>
    <g id="Symbols" stroke="none" stroke-width="1" fill="none" fill-rule="evenodd">
        <g id="Building" transform="translate(-55.000000, -22.000000)" fill="#000000">
            <g id="Group-2">
                <g id="building" transform="translate(55.000000, 22.000000)">
                    <path d="M29.5651845,5.08177193 L22.0487083,5.08177193 L22.0487083,0.571826513 C22.0487083,0.271167465 21.8482888,0.0707480005 21.5476298,0.0707480005 L8.51899144,0.0707480005 C8.21833239,0.0707480005 8.01791292,0.271167465 8.01791292,0.571826513 L8.01791292,5.08177193 L0.501078513,5.08177193 C0.200419465,5.08177193 0,5.2821914 0,5.58285045 L0,23.6226321 L0,27.631499 C0,27.9321581 0.200419465,28.1325776 0.501078513,28.1325776 L8.51875263,28.1325776 L11.0242646,28.1325776 L19.0419387,28.1325776 L21.5474507,28.1325776 L29.5651248,28.1325776 C29.8657838,28.1325776 30.0662033,27.9321581 30.0662033,27.631499 L30.0662033,23.6226321 L30.0662033,5.58285045 C30.0663227,5.2821914 29.8658435,5.08177193 29.5651845,5.08177193 Z M29.064106,6.08398866 L29.064106,23.1215536 L22.0485889,23.1215536 L22.0485889,6.08398866 L29.064106,6.08398866 Z M1.00221673,6.08398866 L8.01767412,6.08398866 L8.01767412,23.1215536 L1.00221673,23.1215536 L1.00221673,6.08398866 Z M1.00221673,24.1237703 L8.01767412,24.1237703 L8.01767412,27.1304205 L1.00221673,27.1304205 L1.00221673,24.1237703 Z M9.01989084,23.6226321 L9.01989084,5.58285045 L9.01989084,1.07290503 L21.0464319,1.07290503 L21.0464319,5.58285045 L21.0464319,23.6226321 L21.0464319,27.1303608 L19.5431366,27.1303608 L19.5431366,22.6204154 C19.5431366,22.3197564 19.3427172,22.1193369 19.0420581,22.1193369 L11.0243243,22.1193369 C10.7236652,22.1193369 10.5232458,22.3197564 10.5232458,22.6204154 L10.5232458,27.1303608 L9.01995054,27.1303608 L9.01995054,23.6226321 L9.01989084,23.6226321 Z M11.5254028,23.1215536 L14.532053,23.1215536 L14.532053,27.1304205 L11.5254028,27.1304205 L11.5254028,23.1215536 Z M15.5342697,27.1303608 L15.5342697,23.1214939 L18.5409199,23.1214939 L18.5409199,27.1303608 L15.5342697,27.1303608 L15.5342697,27.1303608 Z M29.064106,27.1303608 L22.0485889,27.1303608 L22.0485889,24.1237106 L29.064106,24.1237106 L29.064106,27.1303608 Z" id="Shape" fill-rule="nonzero"></path>
                    <path d="M12.026541,14.6027413 L13.0287578,14.6027413 C13.5799859,14.6027413 14.0309745,14.1517527 14.0309745,13.6005246 L14.0309745,12.5983078 C14.0309745,12.0470797 13.5799859,11.5960911 13.0287578,11.5960911 L12.026541,11.5960911 C11.4753129,11.5960911 11.0243243,12.0470797 11.0243243,12.5983078 L11.0243243,13.6005246 C11.0243243,14.1517527 11.4753129,14.6027413 12.026541,14.6027413 Z M12.026541,12.5983078 L13.0287578,12.5983078 L13.0287578,13.6005246 L12.026541,13.6005246 L12.026541,12.5983078 Z" id="Shape" fill-rule="nonzero"></path>
                    <path d="M17.037565,14.6027413 L18.0397817,14.6027413 C18.5910098,14.6027413 19.0419984,14.1517527 19.0419984,13.6005246 L19.0419984,12.5983078 C19.0419984,12.0470797 18.5910098,11.5960911 18.0397817,11.5960911 L17.037565,11.5960911 C16.4863368,11.5960911 16.0353482,12.0470797 16.0353482,12.5983078 L16.0353482,13.6005246 C16.0353482,14.1517527 16.4863368,14.6027413 17.037565,14.6027413 Z M17.037565,12.5983078 L18.0397817,12.5983078 L18.0397817,13.6005246 L17.037565,13.6005246 L17.037565,12.5983078 Z" id="Shape" fill-rule="nonzero"></path>
                    <path d="M12.026541,18.6116082 L13.0287578,18.6116082 C13.5799859,18.6116082 14.0309745,18.1606196 14.0309745,17.6093915 L14.0309745,16.6071747 C14.0309745,16.0559466 13.5799859,15.604958 13.0287578,15.604958 L12.026541,15.604958 C11.4753129,15.604958 11.0243243,16.0559466 11.0243243,16.6071747 L11.0243243,17.6093915 C11.0243243,18.1606196 11.4753129,18.6116082 12.026541,18.6116082 Z M12.026541,16.6071747 L13.0287578,16.6071747 L13.0287578,17.6093915 L12.026541,17.6093915 L12.026541,16.6071747 Z" id="Shape" fill-rule="nonzero"></path>
                    <path d="M17.037565,18.6116082 L18.0397817,18.6116082 C18.5910098,18.6116082 19.0419984,18.1606196 19.0419984,17.6093915 L19.0419984,16.6071747 C19.0419984,16.0559466 18.5910098,15.604958 18.0397817,15.604958 L17.037565,15.604958 C16.4863368,15.604958 16.0353482,16.0559466 16.0353482,16.6071747 L16.0353482,17.6093915 C16.0353482,18.1606196 16.4863368,18.6116082 17.037565,18.6116082 Z M17.037565,16.6071747 L18.0397817,16.6071747 L18.0397817,17.6093915 L17.037565,17.6093915 L17.037565,16.6071747 Z" id="Shape" fill-rule="nonzero"></path>
                    <path d="M25.0552391,10.0927959 L26.0574558,10.0927959 C26.608684,10.0927959 27.0596725,9.6418073 27.0596725,9.09057914 L27.0596725,8.08836241 C27.0596725,7.53713426 26.608684,7.08614569 26.0574558,7.08614569 L25.0552391,7.08614569 C24.5040109,7.08614569 24.0530223,7.53713426 24.0530223,8.08836241 L24.0530223,9.09057914 C24.0530223,9.6418073 24.5040109,10.0927959 25.0552391,10.0927959 Z M25.0552391,8.08836241 L26.0574558,8.08836241 L26.0574558,9.09057914 L25.0552391,9.09057914 L25.0552391,8.08836241 Z" id="Shape" fill-rule="nonzero"></path>
                    <path d="M25.0552391,14.1016628 L26.0574558,14.1016628 C26.608684,14.1016628 27.0596725,13.6506742 27.0596725,13.099446 L27.0596725,12.0972293 C27.0596725,11.5460012 26.608684,11.0950126 26.0574558,11.0950126 L25.0552391,11.0950126 C24.5040109,11.0950126 24.0530223,11.5460012 24.0530223,12.0972293 L24.0530223,13.099446 C24.0530223,13.6506742 24.5040109,14.1016628 25.0552391,14.1016628 Z M25.0552391,12.0972293 L26.0574558,12.0972293 L26.0574558,13.099446 L25.0552391,13.099446 L25.0552391,12.0972293 Z" id="Shape" fill-rule="nonzero"></path>
                    <path d="M25.0552391,18.11047 L26.0574558,18.11047 C26.608684,18.11047 27.0596725,17.6594814 27.0596725,17.1082533 L27.0596725,16.1060365 C27.0596725,15.5548084 26.608684,15.1038198 26.0574558,15.1038198 L25.0552391,15.1038198 C24.5040109,15.1038198 24.0530223,15.5548084 24.0530223,16.1060365 L24.0530223,17.1082533 C24.0530223,17.6594814 24.5040109,18.11047 25.0552391,18.11047 Z M25.0552391,16.1060365 L26.0574558,16.1060365 L26.0574558,17.1082533 L25.0552391,17.1082533 L25.0552391,16.1060365 Z" id="Shape" fill-rule="nonzero"></path>
                    <path d="M25.0552391,22.1193369 L26.0574558,22.1193369 C26.608684,22.1193369 27.0596725,21.6683483 27.0596725,21.1171202 L27.0596725,20.1149034 C27.0596725,19.5636753 26.608684,19.1126867 26.0574558,19.1126867 L25.0552391,19.1126867 C24.5040109,19.1126867 24.0530223,19.5636753 24.0530223,20.1149034 L24.0530223,21.1171202 C24.0530223,21.6683483 24.5040109,22.1193369 25.0552391,22.1193369 Z M25.0552391,20.1149034 L26.0574558,20.1149034 L26.0574558,21.1171202 L25.0552391,21.1171202 L25.0552391,20.1149034 Z" id="Shape" fill-rule="nonzero"></path>
                    <path d="M5.01102393,7.08620539 L4.00886691,7.08620539 C3.45763875,7.08620539 3.00665018,7.53719396 3.00665018,8.08842212 L3.00665018,9.09063884 C3.00665018,9.641867 3.45763875,10.0928556 4.00886691,10.0928556 L5.01108364,10.0928556 C5.56231179,10.0928556 6.01330036,9.641867 6.01330036,9.09063884 L6.01330036,8.08842212 C6.01324066,7.53719396 5.56225209,7.08620539 5.01102393,7.08620539 Z M5.01102393,9.09057914 L4.00886691,9.09057914 L4.00886691,8.08836241 L5.01108364,8.08836241 L5.01108364,9.09057914 L5.01102393,9.09057914 Z" id="Shape" fill-rule="nonzero"></path>
                    <path d="M5.01102393,11.0950126 L4.00886691,11.0950126 C3.45763875,11.0950126 3.00665018,11.5460012 3.00665018,12.0972293 L3.00665018,13.099446 C3.00665018,13.6506742 3.45763875,14.1016628 4.00886691,14.1016628 L5.01108364,14.1016628 C5.56231179,14.1016628 6.01330036,13.6506742 6.01330036,13.099446 L6.01330036,12.0972293 C6.01324066,11.5460012 5.56225209,11.0950126 5.01102393,11.0950126 Z M5.01102393,13.099446 L4.00886691,13.099446 L4.00886691,12.0972293 L5.01108364,12.0972293 L5.01108364,13.099446 L5.01102393,13.099446 Z" id="Shape" fill-rule="nonzero"></path>
                    <path d="M5.01102393,15.1038795 L4.00886691,15.1038795 C3.45763875,15.1038795 3.00665018,15.5548681 3.00665018,16.1060962 L3.00665018,17.108313 C3.00665018,17.6595411 3.45763875,18.1105297 4.00886691,18.1105297 L5.01108364,18.1105297 C5.56231179,18.1105297 6.01330036,17.6595411 6.01330036,17.108313 L6.01330036,16.1060365 C6.01324066,15.5548681 5.56225209,15.1038795 5.01102393,15.1038795 Z M5.01102393,17.1082533 L4.00886691,17.1082533 L4.00886691,16.1060365 L5.01108364,16.1060365 L5.01108364,17.1082533 L5.01102393,17.1082533 Z" id="Shape" fill-rule="nonzero"></path>
                    <path d="M5.01102393,19.1126867 L4.00886691,19.1126867 C3.45763875,19.1126867 3.00665018,19.5636753 3.00665018,20.1149034 L3.00665018,21.1171202 C3.00665018,21.6683483 3.45763875,22.1193369 4.00886691,22.1193369 L5.01108364,22.1193369 C5.56231179,22.1193369 6.01330036,21.6683483 6.01330036,21.1171202 L6.01330036,20.1149034 C6.01324066,19.5636753 5.56225209,19.1126867 5.01102393,19.1126867 Z M5.01102393,21.1171202 L4.00886691,21.1171202 L4.00886691,20.1149034 L5.01108364,20.1149034 L5.01108364,21.1171202 L5.01102393,21.1171202 Z" id="Shape" fill-rule="nonzero"></path>
                    <path d="M16.606354,2.41732271 C16.606354,2.41732271 16.2551186,3.04174131 16.0834035,3.56469189 C15.864857,4.19691572 16.2941447,4.85255525 16.2941447,4.85255525 L17.0200314,5.89845641 C17.3010197,6.33554943 16.606354,7.35022966 16.606354,7.35022966 L15.1077494,3.86129072 C14.4989413,2.44854364 14.8657872,1.90998259 14.8657872,1.90998259 C13.6247552,3.21345642 13.7886651,4.04081107 13.9837959,4.61059305 C13.9837959,4.61059305 14.2569791,5.28964827 14.6082145,6.14822385 L14.1242901,7.39706105 L13.1564413,5.10232269 C12.8208163,4.23594188 13.179857,3.65054945 13.179857,3.65054945 C11.6266157,5.0086599 12.1963977,6.40579652 12.4929965,7.12387792 C13.1564413,8.73175582 13.5935343,9.75424128 13.6950023,10.0352296 C13.718418,10.0976715 13.7340285,10.1445029 13.7340285,10.1445029 L14.0306273,10.1445029 C14.054043,10.1366977 14.0774587,10.1288924 14.0930692,10.1054767 C14.1086796,10.082061 14.2023424,9.76985174 14.2023424,9.76985174 L14.9828657,7.13168315 C15.4902058,8.39613082 16.1302349,9.95717732 16.169261,10.0664506 C16.1926767,10.1210872 16.2004819,10.1445029 16.2004819,10.1445029 C16.2004819,10.1445029 16.4892756,10.1445029 16.4892756,10.1445029 C16.504886,10.1445029 16.5204965,10.1366977 16.5439122,10.1054767 C16.5673279,10.0742558 16.6687959,9.76204651 16.6687959,9.76204651 L17.8161651,6.44482269 C18.3781418,4.98524421 17.6756709,4.36863084 17.1449151,3.66615991 C16.4892756,2.80758433 16.606354,2.41732271 16.606354,2.41732271 Z" id="Path"></path>
                </g>
            </g>
        </g>
    </g>
</svg>